<svg xmlns="http://www.w3.org/2000/svg" viewBox="0 0 280 290" fill="none">
  <g fill="currentColor">

    <!-- ── V shape: left arm ───────────────────── -->
    <polygon points="12,15  64,15  148,268  96,268"/>

    <!-- ── V shape: right arm ─────────────────── -->
    <polygon points="268,15  216,15  132,268  184,268"/>

    <!-- ── S: upper arc (top-right curl over V) ── -->
    <!-- Upper serif cap of S -->
    <path d="
      M 190,22
      C 190,22  218,18  222,56
      C 226,90  196,106  166,120
      C 152,127  140,134  132,142
      L 120,115
      C 130,108  145,100  162,92
      C 196,76   208,62   204,44
      C 200,28   182,19   160,21
      C 140,23   124,35   116,50
      L 96,28
      C 110,8    138,0    164,0
      C 176,0    190,22   190,22 Z
    "/>

    <!-- ── S: lower arc (bottom-left curl over V) ── -->
    <path d="
      M 148,160
      C 162,152  176,144  184,136
      L 196,164
      C 186,174  172,184  156,190
      C 186,196  208,210  210,240
      C 212,268  184,286  156,286
      C 126,286  100,272   90,252
      L 110,236
      C 118,252  136,262  156,260
      C 176,258  190,246  188,230
      C 186,216  170,206  148,200
      C 120,192   94,180   92,152
      C 90,130   108,116  130,106
      L 148,134
      C 132,142  118,152  120,164
      C 122,176  134,182  148,188
      Z
    "/>

  </g>
</svg>
